<?xml version="1.0" encoding="UTF-8"?><svg xmlns="http://www.w3.org/2000/svg" xmlns:xlink="http://www.w3.org/1999/xlink" height="925.7" preserveAspectRatio="xMidYMid meet" version="1.0" viewBox="-0.5 1074.8 2001.0 925.7" width="2001.0" zoomAndPan="magnify"><g><g id="change1_1"><path d="M 0 1689.878906 L 0 1393.550781 C 126.234375 1460.460938 219.246094 1450.460938 375.261719 1379.453125 C 605.617188 1274.613281 734.175781 1074.824219 1179.894531 1258.3125 C 1585.726562 1425.390625 1999.992188 1258.3125 1999.992188 1258.3125 L 1999.992188 1689.878906 L 0 1689.878906" fill="#d4f1f5"/></g><g id="change2_1"><path d="M 1999.992188 1520.472656 C 1911.417969 1714.941406 1674.042969 1314.863281 1407.371094 1415.460938 C 1123.527344 1522.523438 1275.34375 1144.710938 699.960938 1380.472656 C 608.5 1417.953125 240.246094 1616.480469 0 1445 L 0 2000 L 1999.992188 2000 L 1999.992188 1520.472656" fill="#99dde7"/></g><g id="change3_1"><path d="M 1999.992188 1520.472656 L 1999.539062 1520.261719 C 1990.667969 1539.710938 1980.347656 1553.164062 1968.667969 1561.742188 C 1956.988281 1570.332031 1943.980469 1574.0625 1929.6875 1574.070312 C 1905.269531 1574.070312 1877.121094 1563.140625 1845.894531 1546.679688 C 1799.039062 1522.011719 1745.257812 1484.960938 1686.609375 1454.070312 C 1627.945312 1423.191406 1564.386719 1398.453125 1497.945312 1398.453125 C 1468.203125 1398.453125 1437.886719 1403.410156 1407.1875 1414.992188 C 1370.511719 1428.820312 1341.148438 1434.542969 1316.558594 1434.542969 C 1286.929688 1434.542969 1264.242188 1426.234375 1244.03125 1413.75 C 1213.714844 1395.042969 1188.996094 1366.871094 1155.007812 1343.351562 C 1121.007812 1319.839844 1077.71875 1301.011719 1010.335938 1301.023438 C 939.359375 1301.023438 841.652344 1321.871094 699.769531 1380.011719 C 667.429688 1393.261719 600.621094 1426.582031 517.113281 1456.59375 C 433.613281 1486.601562 333.433594 1513.292969 234.441406 1513.292969 C 152.160156 1513.292969 70.710938 1494.863281 0.289062 1444.59375 L -0.5 1444.03125 L -0.5 2000.5 L 2000.496094 2000.5 L 2000.496094 1518.152344 L 1999.539062 1520.261719 L 1999.992188 1520.472656 L 1999.492188 1520.472656 L 1999.492188 1999.5 L 0.496094 1999.5 L 0.5 1445 L 0 1445 L -0.289062 1445.410156 C 70.339844 1495.820312 152.015625 1514.292969 234.441406 1514.292969 C 333.613281 1514.292969 433.890625 1487.5625 517.453125 1457.53125 C 601.011719 1427.503906 667.878906 1394.164062 700.152344 1380.933594 C 841.960938 1322.832031 939.554688 1302.023438 1010.335938 1302.023438 C 1099.925781 1302.03125 1146.566406 1335.3125 1185.816406 1368.664062 C 1205.425781 1385.34375 1223.1875 1402.050781 1243.503906 1414.601562 C 1263.824219 1427.164062 1286.730469 1435.542969 1316.558594 1435.542969 C 1341.296875 1435.542969 1370.78125 1429.792969 1407.542969 1415.921875 C 1438.117188 1404.390625 1468.3125 1399.453125 1497.945312 1399.453125 C 1586.191406 1399.441406 1669.515625 1443.292969 1743.050781 1487.191406 C 1779.808594 1509.132812 1814.128906 1531.089844 1845.429688 1547.570312 C 1876.71875 1564.039062 1904.976562 1575.0625 1929.6875 1575.070312 C 1944.152344 1575.070312 1957.417969 1571.261719 1969.257812 1562.550781 C 1981.109375 1553.839844 1991.539062 1540.230469 2000.449219 1520.671875 L 1999.992188 1520.472656 L 1999.492188 1520.472656 L 1999.992188 1520.472656" fill="#77cff1"/></g><g id="change4_1"><path d="M 0 1480 C 0 1480 73.582031 1714.371094 497.582031 1534.371094 C 921.578125 1354.371094 950.34375 1483.273438 1230.351562 1603.269531 C 1510.351562 1723.269531 1923.417969 1544.472656 1999.992188 1502.472656 L 1999.992188 2000 L 0 2000 L 0 1480" fill="#6ecfe2"/></g><g id="change5_1"><path d="M 1999.992188 2000 L 1999.992188 1615.5 C 1889.589844 1559.460938 1738.042969 1710.371094 1641.382812 1778.351562 C 1434.363281 1923.949219 1265.8125 1574.941406 820.101562 1758.429688 C 414.265625 1925.511719 0 1758.429688 0 1758.429688 L 0 2000 L 1999.992188 2000" fill="#40c0d8"/></g></g></svg>