<?xml version="1.0" encoding="UTF-8" standalone="no"?><svg xmlns="http://www.w3.org/2000/svg" xmlns:xlink="http://www.w3.org/1999/xlink" fill="#ffffff" height="341.8" preserveAspectRatio="xMidYMid meet" version="1" viewBox="0.0 0.0 334.0 341.8" width="334" zoomAndPan="magnify"><g id="change1_1"><path d="m47.57,340.86s0,0,0,0c0,0,0,0,0,0h-.01Zm286.45-74.26c0,.69-.06,1.37-.18,2.04v.06s-.02.04-.02.04c-.72,2.8-1.73,6.09-3.25,9.16-1.47,2.96-3.41,5.73-6.12,7.58-.03.05-.07.1-.11.15-2.33,3.87-5.38,7.02-8.7,9.78-3.34,2.78-6.96,5.18-10.45,7.54l-.04.03-.03.02c-3,1.79-6.84,5.39-10.98,9.18-4.15,3.79-8.63,7.79-13.22,10.44-3.06,1.77-6.21,2.96-9.4,2.97-1.72,0-3.44-.36-5.08-1.16-1.63-.79-3.17-2-4.6-3.65h0c-9.44-10.34-20.58-19.09-31.53-28.18-10.94-9.09-21.69-18.51-30.27-30.27h0c-.94-1.32-2.91-3.43-5.4-5.96-2.5-2.54-5.54-5.53-8.71-8.75-5.87-5.97-12.19-12.7-16.48-19.02-11.82,11.54-24.77,21.75-34.83,34.49-7.15,9.49-15.26,18.1-23.64,26.39-7.3,7.78-13.49,16.98-22.22,24.01-6.93,6.08-14.1,11.84-21.01,17.81h.02s-.04.02-.04.02c-1.55,1.27-3.2,3.03-4.99,4.74-1.79,1.71-3.71,3.41-5.94,4.54-1.48.75-3.11,1.24-4.87,1.24-1.41,0-2.87-.32-4.35-1-8.6-3.86-15.2-10.4-21.34-16.94-2.72-2.24-7.01-6.01-11.34-10.51-4.37-4.55-8.79-9.84-11.69-15.13C1.28,294.74,0,291.19,0,287.76c0-1.77.35-3.5,1.15-5.1.77-1.55,1.95-2.96,3.53-4.17,11.78-12.4,21.97-26.32,34.98-38.04,3.13-3.42,5.79-7.3,8.52-11.22,2.73-3.92,5.54-7.88,9.03-11.41h0s0,0,0,0c0,0,.02-.02.02-.03h0c3.71-3.94,7.84-7.33,11.92-10.69,4.09-3.36,8.13-6.68,11.68-10.44,5.49-5.97,10.66-12.35,16.8-18l.04-.04.05-.04c2.77-2.16,5.44-4.82,8.22-7.44-9.27-10.03-17.6-20.82-27.62-29.79h-.01s-.02-.03-.02-.03c-22.98-21.84-46.9-42.76-69.26-65.43h0c-.56-.47-1.06-.98-1.51-1.49-.98-.03-1.98-.32-2.87-.9-.95-.61-1.77-1.52-2.45-2.68l-.07-.13-.05-.14c-.66-1.94-.97-3.87-.97-5.75,0-2.95.74-5.79,1.94-8.47,1.2-2.68,2.86-5.2,4.73-7.57,3.76-4.74,8.41-8.87,12.18-12.24h0c2.24-1.96,4.77-3.16,7.28-4.15,2.46-.96,4.9-1.73,7.11-2.75,3.04-2.36,6.16-5.22,9.47-7.91,3.36-2.73,6.94-5.29,10.94-6.93,2.67-1.09,5.53-1.76,8.6-1.76.17,0,.34,0,.51,0h.22s.21.07.21.07c3.12,1.02,5.53,3.05,7.58,5.28,2.05,2.23,3.78,4.7,5.51,6.76l.04.04.03.04c4.44,6.15,9.83,11.53,15.54,16.66h0c11.25,10.25,23.36,19.61,34.41,30.37,5.23,4.24,11.1,8.2,15.69,13.67h0s.01.02.01.02c2.71,3.35,5.12,6.87,7.66,10.18,2.54,3.31,5.2,6.42,8.41,8.98l.08.06.07.07c1.67,1.75,3.93,3.4,6.15,5.21,4.18-5.35,9.17-10.15,14.1-14.9,5.31-5.11,10.55-10.16,14.61-15.7v-.02s.04-.03.04-.03c15.38-19.04,32.82-36.06,49.81-53.42l.05-.05.05-.04c4.1-3.52,8.37-6.7,12.31-10.1,3.94-3.4,7.55-7.02,10.4-11.4l.02-.02.02-.03c1.15-1.62,2.47-2.82,3.92-3.6C272.29.35,273.84,0,275.37,0c2.22,0,4.38.71,6.39,1.78,1.98,1.06,3.81,2.5,5.4,4.09,8.65,7.63,16.9,15.59,23.38,25.41,2.62,2.79,5.96,6.2,9.12,9.98,3.19,3.81,6.22,8.01,8.16,12.41,1.29,2.94,2.11,5.98,2.11,9.07,0,1.2-.12,2.41-.4,3.62l-.04.17-.08.16c-5.63,11.51-14.25,21.58-23.22,30.43l-.04.04-.03.02c-16.14,14.16-33.45,26.89-48.39,42.02-6.55,7.7-12.06,16.4-19.89,23.35,1.88,1.19,3.7,2.5,5.43,3.97h0c27.84,22.02,52.01,48.31,74.59,75.44l.02.02c4.26,5.34,8.97,10.56,12.43,16.82,1.22.88,2.14,2.04,2.73,3.33.65,1.41.96,2.95.96,4.48Zm-16.88-3.59c-4.75-7.15-11.02-12.92-17.8-18.34-7.17-5.73-14.87-11.08-21.75-17.36h0s-.01-.02-.01-.02c-17.39-16.52-32.96-34.67-50.03-51.24l-.04-.04-.02-.03c-1.31-1.44-3.22-2.87-4.97-4.57-.75-.25-1.43-.63-2.01-1.11-.68-.57-1.23-1.25-1.65-2-.85-1.5-1.23-3.22-1.23-4.9,0-.85.11-1.69.31-2.49h0s0-.03.01-.05c0-.01,0-.02,0-.04h0c.29-1.33.84-2.5,1.54-3.51.71-1.03,1.57-1.9,2.46-2.69,1.79-1.56,3.75-2.81,5.26-4.14,13.81-12.98,29.08-23.89,43.89-35.38,3.44-2.96,6.42-6.43,9.37-10.02,2.95-3.59,5.86-7.3,9.2-10.72h0c9.46-10.16,18.25-18.74,27.05-28.68-7.68-5.89-15.6-11.87-22.23-19.22h-.01s-.03-.04-.03-.04c-4.03-4.83-7.34-10.08-10.7-15.2-3.06-4.67-6.17-9.24-9.85-13.34-12.28,12.89-24.99,25.14-35.45,39.35l-.04.05-.05.05c-9.83,11.07-20.99,20.73-30.88,31.43-10.63,12.61-21.06,25.4-32.59,37.37l-.08.08-.09.07c-1.14.87-2.24,2.39-3.4,4.01-1.17,1.62-2.41,3.35-4.14,4.59-1.15.82-2.59,1.38-4.21,1.38-.29,0-.58-.02-.88-.05h-.1s-.09-.03-.09-.03c-.9-.22-1.7-.64-2.36-1.18-.58-.47-1.04-1.04-1.42-1.64-.51-.42-1.02-.9-1.49-1.48h0c-7.52-8.92-17.03-16.44-24.22-26.37-9.96-10.29-19.07-21.16-27.25-32.93-13.7-15.17-29.43-28.45-43.65-43.43-5.73,6.56-11.52,13.31-18.33,19.02h0s0,0-.01,0c0,0-.02.01-.02.02h0c-3.24,2.88-6.88,5.01-10.47,7.03-3.6,2.03-7.14,3.96-10.25,6.4-1.69,1.44-3.35,2.87-4.9,4.38,12.66,11.63,27.56,20.83,40.63,32.46l.05.05.04.05c12.61,13.43,26.4,25.8,39.61,38.84l.03.03.02.03c4.66,5.12,9.28,10.11,14.9,13.83l.05.03.04.04c1.99,1.55,4.32,3,6.55,4.69,2.23,1.69,4.37,3.62,5.88,6.22.88,1.51,1.25,3.24,1.29,4.97.35,1.09.53,2.23.53,3.37,0,1.33-.23,2.66-.73,3.87l-.03.07-.04.07c-2.87,5.34-6.95,9.78-11.26,13.91-4.32,4.13-8.88,7.96-12.79,12.04h0c-12.61,13.3-25.91,25.91-37.66,39.77-9.15,12.5-22.11,20.41-33.98,29.16-5.54,4.87-10.71,10.23-16.03,15.49,3.52,3,7.56,5.44,11.67,7.93,4.57,2.78,9.21,5.63,13.2,9.48l.03.03.03.03c6.04,6.55,12.4,13.13,17.39,20.81,6.18-5.78,11.72-12.3,17.26-18.91,5.93-7.07,11.87-14.23,18.67-20.64h0c5.44-5.62,11.78-9.95,17.93-14.33,6.18-4.39,12.16-8.81,16.96-14.53l.03-.03.02-.02c10.23-11.08,20.46-22.11,29.28-34.22l.07-.1.08-.08c1.53-1.51,2.8-3.63,4.12-5.86,1.32-2.22,2.69-4.56,4.6-6.45,1.27-1.26,2.81-2.31,4.7-2.9l.22-.07h.23c1.3,0,2.47.23,3.5.66,1.02.43,1.89,1.08,2.57,1.86,1.19,1.38,1.78,3.12,1.95,4.91,17.09,12.53,31.39,27.35,45.78,42.72,8.33,7.46,17.34,14.6,23.58,24.54,8.1,9.87,14.82,20.93,23.89,29.29,12.8-13.99,24.26-29.54,39.91-41.29l.05-.04.03-.02c.24-.15.47-.28.71-.42,1.1-1.71,2.46-3.23,4.05-4.37Z"/></g></svg>